<svg width="1600" height="1600" viewBox="0 0 1600 1600" fill="none" xmlns="http://www.w3.org/2000/svg">
<rect x="1500" y="100" width="100" height="100" fill="#85D901"/>
<path d="M200 100H300V200H200V100Z" fill="#8DE701"/>
<rect x="100" y="100" width="100" height="100" fill="#85D901"/>
<path d="M400 100H500V200H400V100Z" fill="#8DE701"/>
<rect x="300" y="100" width="100" height="100" fill="#85D901"/>
<path d="M600 100H700V200H600V100Z" fill="#8DE701"/>
<rect x="500" y="100" width="100" height="100" fill="#85D901"/>
<path d="M800 100H900V200H800V100Z" fill="#8DE701"/>
<rect x="700" y="100" width="100" height="100" fill="#85D901"/>
<path d="M1000 100H1100V200H1000V100Z" fill="#8DE701"/>
<rect x="900" y="100" width="100" height="100" fill="#85D901"/>
<path d="M1200 100H1300V200H1200V100Z" fill="#8DE701"/>
<rect x="1100" y="100" width="100" height="100" fill="#85D901"/>
<path d="M1400 100H1500V200H1400V100Z" fill="#8DE701"/>
<rect x="1300" y="100" width="100" height="100" fill="#85D901"/>
<path d="M0 100H100V200H0V100Z" fill="#8DE701"/>
<rect width="100" height="100" fill="#85D901"/>
<path d="M300 0H400V100H300V0Z" fill="#8DE701"/>
<rect x="200" width="100" height="100" fill="#85D901"/>
<path d="M500 0H600V100H500V0Z" fill="#8DE701"/>
<rect x="400" width="100" height="100" fill="#85D901"/>
<path d="M700 0H800V100H700V0Z" fill="#8DE701"/>
<rect x="600" width="100" height="100" fill="#85D901"/>
<path d="M900 0H1000V100H900V0Z" fill="#8DE701"/>
<rect x="800" width="100" height="100" fill="#85D901"/>
<path d="M1100 0H1200V100H1100V0Z" fill="#8DE701"/>
<rect x="1000" width="100" height="100" fill="#85D901"/>
<path d="M1300 0H1400V100H1300V0Z" fill="#8DE701"/>
<rect x="1200" width="100" height="100" fill="#85D901"/>
<path d="M1500 0H1600V100H1500V0Z" fill="#8DE701"/>
<rect x="1400" width="100" height="100" fill="#85D901"/>
<path d="M100 0H200V100H100V0Z" fill="#8DE701"/>
<rect x="1500" y="300" width="100" height="100" fill="#85D901"/>
<path d="M200 300H300V400H200V300Z" fill="#8DE701"/>
<rect x="100" y="300" width="100" height="100" fill="#85D901"/>
<path d="M400 300H500V400H400V300Z" fill="#8DE701"/>
<rect x="300" y="300" width="100" height="100" fill="#85D901"/>
<path d="M600 300H700V400H600V300Z" fill="#8DE701"/>
<rect x="500" y="300" width="100" height="100" fill="#85D901"/>
<path d="M800 300H900V400H800V300Z" fill="#8DE701"/>
<rect x="700" y="300" width="100" height="100" fill="#85D901"/>
<path d="M1000 300H1100V400H1000V300Z" fill="#8DE701"/>
<rect x="900" y="300" width="100" height="100" fill="#85D901"/>
<path d="M1200 300H1300V400H1200V300Z" fill="#8DE701"/>
<rect x="1100" y="300" width="100" height="100" fill="#85D901"/>
<path d="M1400 300H1500V400H1400V300Z" fill="#8DE701"/>
<rect x="1300" y="300" width="100" height="100" fill="#85D901"/>
<path d="M0 300H100V400H0V300Z" fill="#8DE701"/>
<rect y="200" width="100" height="100" fill="#85D901"/>
<path d="M300 200H400V300H300V200Z" fill="#8DE701"/>
<rect x="200" y="200" width="100" height="100" fill="#85D901"/>
<path d="M500 200H600V300H500V200Z" fill="#8DE701"/>
<rect x="400" y="200" width="100" height="100" fill="#85D901"/>
<path d="M700 200H800V300H700V200Z" fill="#8DE701"/>
<rect x="600" y="200" width="100" height="100" fill="#85D901"/>
<path d="M900 200H1000V300H900V200Z" fill="#8DE701"/>
<rect x="800" y="200" width="100" height="100" fill="#85D901"/>
<path d="M1100 200H1200V300H1100V200Z" fill="#8DE701"/>
<rect x="1000" y="200" width="100" height="100" fill="#85D901"/>
<path d="M1300 200H1400V300H1300V200Z" fill="#8DE701"/>
<rect x="1200" y="200" width="100" height="100" fill="#85D901"/>
<path d="M1500 200H1600V300H1500V200Z" fill="#8DE701"/>
<rect x="1400" y="200" width="100" height="100" fill="#85D901"/>
<path d="M100 200H200V300H100V200Z" fill="#8DE701"/>
<rect x="1500" y="500" width="100" height="100" fill="#85D901"/>
<path d="M200 500H300V600H200V500Z" fill="#8DE701"/>
<rect x="100" y="500" width="100" height="100" fill="#85D901"/>
<path d="M400 500H500V600H400V500Z" fill="#8DE701"/>
<rect x="300" y="500" width="100" height="100" fill="#85D901"/>
<path d="M600 500H700V600H600V500Z" fill="#8DE701"/>
<rect x="500" y="500" width="100" height="100" fill="#85D901"/>
<path d="M800 500H900V600H800V500Z" fill="#8DE701"/>
<rect x="700" y="500" width="100" height="100" fill="#85D901"/>
<path d="M1000 500H1100V600H1000V500Z" fill="#8DE701"/>
<rect x="900" y="500" width="100" height="100" fill="#85D901"/>
<path d="M1200 500H1300V600H1200V500Z" fill="#8DE701"/>
<rect x="1100" y="500" width="100" height="100" fill="#85D901"/>
<path d="M1400 500H1500V600H1400V500Z" fill="#8DE701"/>
<rect x="1300" y="500" width="100" height="100" fill="#85D901"/>
<path d="M0 500H100V600H0V500Z" fill="#8DE701"/>
<rect y="400" width="100" height="100" fill="#85D901"/>
<path d="M300 400H400V500H300V400Z" fill="#8DE701"/>
<rect x="200" y="400" width="100" height="100" fill="#85D901"/>
<path d="M500 400H600V500H500V400Z" fill="#8DE701"/>
<rect x="400" y="400" width="100" height="100" fill="#85D901"/>
<path d="M700 400H800V500H700V400Z" fill="#8DE701"/>
<rect x="600" y="400" width="100" height="100" fill="#85D901"/>
<path d="M900 400H1000V500H900V400Z" fill="#8DE701"/>
<rect x="800" y="400" width="100" height="100" fill="#85D901"/>
<path d="M1100 400H1200V500H1100V400Z" fill="#8DE701"/>
<rect x="1000" y="400" width="100" height="100" fill="#85D901"/>
<path d="M1300 400H1400V500H1300V400Z" fill="#8DE701"/>
<rect x="1200" y="400" width="100" height="100" fill="#85D901"/>
<path d="M1500 400H1600V500H1500V400Z" fill="#8DE701"/>
<rect x="1400" y="400" width="100" height="100" fill="#85D901"/>
<path d="M100 400H200V500H100V400Z" fill="#8DE701"/>
<rect x="1500" y="700" width="100" height="100" fill="#85D901"/>
<path d="M200 700H300V800H200V700Z" fill="#8DE701"/>
<rect x="100" y="700" width="100" height="100" fill="#85D901"/>
<path d="M400 700H500V800H400V700Z" fill="#8DE701"/>
<rect x="300" y="700" width="100" height="100" fill="#85D901"/>
<path d="M600 700H700V800H600V700Z" fill="#8DE701"/>
<rect x="500" y="700" width="100" height="100" fill="#85D901"/>
<path d="M800 700H900V800H800V700Z" fill="#8DE701"/>
<rect x="700" y="700" width="100" height="100" fill="#85D901"/>
<path d="M1000 700H1100V800H1000V700Z" fill="#8DE701"/>
<rect x="900" y="700" width="100" height="100" fill="#85D901"/>
<path d="M1200 700H1300V800H1200V700Z" fill="#8DE701"/>
<rect x="1100" y="700" width="100" height="100" fill="#85D901"/>
<path d="M1400 700H1500V800H1400V700Z" fill="#8DE701"/>
<rect x="1300" y="700" width="100" height="100" fill="#85D901"/>
<path d="M0 700H100V800H0V700Z" fill="#8DE701"/>
<rect y="600" width="100" height="100" fill="#85D901"/>
<path d="M300 600H400V700H300V600Z" fill="#8DE701"/>
<rect x="200" y="600" width="100" height="100" fill="#85D901"/>
<path d="M500 600H600V700H500V600Z" fill="#8DE701"/>
<rect x="400" y="600" width="100" height="100" fill="#85D901"/>
<path d="M700 600H800V700H700V600Z" fill="#8DE701"/>
<rect x="600" y="600" width="100" height="100" fill="#85D901"/>
<path d="M900 600H1000V700H900V600Z" fill="#8DE701"/>
<rect x="800" y="600" width="100" height="100" fill="#85D901"/>
<path d="M1100 600H1200V700H1100V600Z" fill="#8DE701"/>
<rect x="1000" y="600" width="100" height="100" fill="#85D901"/>
<path d="M1300 600H1400V700H1300V600Z" fill="#8DE701"/>
<rect x="1200" y="600" width="100" height="100" fill="#85D901"/>
<path d="M1500 600H1600V700H1500V600Z" fill="#8DE701"/>
<rect x="1400" y="600" width="100" height="100" fill="#85D901"/>
<path d="M100 600H200V700H100V600Z" fill="#8DE701"/>
<rect x="1500" y="900" width="100" height="100" fill="#85D901"/>
<path d="M200 900H300V1000H200V900Z" fill="#8DE701"/>
<rect x="100" y="900" width="100" height="100" fill="#85D901"/>
<path d="M400 900H500V1000H400V900Z" fill="#8DE701"/>
<rect x="300" y="900" width="100" height="100" fill="#85D901"/>
<path d="M600 900H700V1000H600V900Z" fill="#8DE701"/>
<rect x="500" y="900" width="100" height="100" fill="#85D901"/>
<path d="M800 900H900V1000H800V900Z" fill="#8DE701"/>
<rect x="700" y="900" width="100" height="100" fill="#85D901"/>
<path d="M1000 900H1100V1000H1000V900Z" fill="#8DE701"/>
<rect x="900" y="900" width="100" height="100" fill="#85D901"/>
<path d="M1200 900H1300V1000H1200V900Z" fill="#8DE701"/>
<rect x="1100" y="900" width="100" height="100" fill="#85D901"/>
<path d="M1400 900H1500V1000H1400V900Z" fill="#8DE701"/>
<rect x="1300" y="900" width="100" height="100" fill="#85D901"/>
<path d="M0 900H100V1000H0V900Z" fill="#8DE701"/>
<rect y="800" width="100" height="100" fill="#85D901"/>
<path d="M300 800H400V900H300V800Z" fill="#8DE701"/>
<rect x="200" y="800" width="100" height="100" fill="#85D901"/>
<path d="M500 800H600V900H500V800Z" fill="#8DE701"/>
<rect x="400" y="800" width="100" height="100" fill="#85D901"/>
<path d="M700 800H800V900H700V800Z" fill="#8DE701"/>
<rect x="600" y="800" width="100" height="100" fill="#85D901"/>
<path d="M900 800H1000V900H900V800Z" fill="#8DE701"/>
<rect x="800" y="800" width="100" height="100" fill="#85D901"/>
<path d="M1100 800H1200V900H1100V800Z" fill="#8DE701"/>
<rect x="1000" y="800" width="100" height="100" fill="#85D901"/>
<path d="M1300 800H1400V900H1300V800Z" fill="#8DE701"/>
<rect x="1200" y="800" width="100" height="100" fill="#85D901"/>
<path d="M1500 800H1600V900H1500V800Z" fill="#8DE701"/>
<rect x="1400" y="800" width="100" height="100" fill="#85D901"/>
<path d="M100 800H200V900H100V800Z" fill="#8DE701"/>
<rect x="1500" y="1100" width="100" height="100" fill="#85D901"/>
<path d="M200 1100H300V1200H200V1100Z" fill="#8DE701"/>
<rect x="100" y="1100" width="100" height="100" fill="#85D901"/>
<path d="M400 1100H500V1200H400V1100Z" fill="#8DE701"/>
<rect x="300" y="1100" width="100" height="100" fill="#85D901"/>
<path d="M600 1100H700V1200H600V1100Z" fill="#8DE701"/>
<rect x="500" y="1100" width="100" height="100" fill="#85D901"/>
<path d="M800 1100H900V1200H800V1100Z" fill="#8DE701"/>
<rect x="700" y="1100" width="100" height="100" fill="#85D901"/>
<path d="M1000 1100H1100V1200H1000V1100Z" fill="#8DE701"/>
<rect x="900" y="1100" width="100" height="100" fill="#85D901"/>
<path d="M1200 1100H1300V1200H1200V1100Z" fill="#8DE701"/>
<rect x="1100" y="1100" width="100" height="100" fill="#85D901"/>
<path d="M1400 1100H1500V1200H1400V1100Z" fill="#8DE701"/>
<rect x="1300" y="1100" width="100" height="100" fill="#85D901"/>
<path d="M0 1100H100V1200H0V1100Z" fill="#8DE701"/>
<rect y="1000" width="100" height="100" fill="#85D901"/>
<path d="M300 1000H400V1100H300V1000Z" fill="#8DE701"/>
<rect x="200" y="1000" width="100" height="100" fill="#85D901"/>
<path d="M500 1000H600V1100H500V1000Z" fill="#8DE701"/>
<rect x="400" y="1000" width="100" height="100" fill="#85D901"/>
<path d="M700 1000H800V1100H700V1000Z" fill="#8DE701"/>
<rect x="600" y="1000" width="100" height="100" fill="#85D901"/>
<path d="M900 1000H1000V1100H900V1000Z" fill="#8DE701"/>
<rect x="800" y="1000" width="100" height="100" fill="#85D901"/>
<path d="M1100 1000H1200V1100H1100V1000Z" fill="#8DE701"/>
<rect x="1000" y="1000" width="100" height="100" fill="#85D901"/>
<path d="M1300 1000H1400V1100H1300V1000Z" fill="#8DE701"/>
<rect x="1200" y="1000" width="100" height="100" fill="#85D901"/>
<path d="M1500 1000H1600V1100H1500V1000Z" fill="#8DE701"/>
<rect x="1400" y="1000" width="100" height="100" fill="#85D901"/>
<path d="M100 1000H200V1100H100V1000Z" fill="#8DE701"/>
<rect x="1500" y="1300" width="100" height="100" fill="#85D901"/>
<path d="M200 1300H300V1400H200V1300Z" fill="#8DE701"/>
<rect x="100" y="1300" width="100" height="100" fill="#85D901"/>
<path d="M400 1300H500V1400H400V1300Z" fill="#8DE701"/>
<rect x="300" y="1300" width="100" height="100" fill="#85D901"/>
<path d="M600 1300H700V1400H600V1300Z" fill="#8DE701"/>
<rect x="500" y="1300" width="100" height="100" fill="#85D901"/>
<path d="M800 1300H900V1400H800V1300Z" fill="#8DE701"/>
<rect x="700" y="1300" width="100" height="100" fill="#85D901"/>
<path d="M1000 1300H1100V1400H1000V1300Z" fill="#8DE701"/>
<rect x="900" y="1300" width="100" height="100" fill="#85D901"/>
<path d="M1200 1300H1300V1400H1200V1300Z" fill="#8DE701"/>
<rect x="1100" y="1300" width="100" height="100" fill="#85D901"/>
<path d="M1400 1300H1500V1400H1400V1300Z" fill="#8DE701"/>
<rect x="1300" y="1300" width="100" height="100" fill="#85D901"/>
<path d="M0 1300H100V1400H0V1300Z" fill="#8DE701"/>
<rect y="1200" width="100" height="100" fill="#85D901"/>
<path d="M300 1200H400V1300H300V1200Z" fill="#8DE701"/>
<rect x="200" y="1200" width="100" height="100" fill="#85D901"/>
<path d="M500 1200H600V1300H500V1200Z" fill="#8DE701"/>
<rect x="400" y="1200" width="100" height="100" fill="#85D901"/>
<path d="M700 1200H800V1300H700V1200Z" fill="#8DE701"/>
<rect x="600" y="1200" width="100" height="100" fill="#85D901"/>
<path d="M900 1200H1000V1300H900V1200Z" fill="#8DE701"/>
<rect x="800" y="1200" width="100" height="100" fill="#85D901"/>
<path d="M1100 1200H1200V1300H1100V1200Z" fill="#8DE701"/>
<rect x="1000" y="1200" width="100" height="100" fill="#85D901"/>
<path d="M1300 1200H1400V1300H1300V1200Z" fill="#8DE701"/>
<rect x="1200" y="1200" width="100" height="100" fill="#85D901"/>
<path d="M1500 1200H1600V1300H1500V1200Z" fill="#8DE701"/>
<rect x="1400" y="1200" width="100" height="100" fill="#85D901"/>
<path d="M100 1200H200V1300H100V1200Z" fill="#8DE701"/>
<rect x="1500" y="1500" width="100" height="100" fill="#85D901"/>
<path d="M200 1500H300V1600H200V1500Z" fill="#8DE701"/>
<rect x="100" y="1500" width="100" height="100" fill="#85D901"/>
<path d="M400 1500H500V1600H400V1500Z" fill="#8DE701"/>
<rect x="300" y="1500" width="100" height="100" fill="#85D901"/>
<path d="M600 1500H700V1600H600V1500Z" fill="#8DE701"/>
<rect x="500" y="1500" width="100" height="100" fill="#85D901"/>
<path d="M800 1500H900V1600H800V1500Z" fill="#8DE701"/>
<rect x="700" y="1500" width="100" height="100" fill="#85D901"/>
<path d="M1000 1500H1100V1600H1000V1500Z" fill="#8DE701"/>
<rect x="900" y="1500" width="100" height="100" fill="#85D901"/>
<path d="M1200 1500H1300V1600H1200V1500Z" fill="#8DE701"/>
<rect x="1100" y="1500" width="100" height="100" fill="#85D901"/>
<path d="M1400 1500H1500V1600H1400V1500Z" fill="#8DE701"/>
<rect x="1300" y="1500" width="100" height="100" fill="#85D901"/>
<path d="M0 1500H100V1600H0V1500Z" fill="#8DE701"/>
<rect y="1400" width="100" height="100" fill="#85D901"/>
<path d="M300 1400H400V1500H300V1400Z" fill="#8DE701"/>
<rect x="200" y="1400" width="100" height="100" fill="#85D901"/>
<path d="M500 1400H600V1500H500V1400Z" fill="#8DE701"/>
<rect x="400" y="1400" width="100" height="100" fill="#85D901"/>
<path d="M700 1400H800V1500H700V1400Z" fill="#8DE701"/>
<rect x="600" y="1400" width="100" height="100" fill="#85D901"/>
<path d="M900 1400H1000V1500H900V1400Z" fill="#8DE701"/>
<rect x="800" y="1400" width="100" height="100" fill="#85D901"/>
<path d="M1100 1400H1200V1500H1100V1400Z" fill="#8DE701"/>
<rect x="1000" y="1400" width="100" height="100" fill="#85D901"/>
<path d="M1300 1400H1400V1500H1300V1400Z" fill="#8DE701"/>
<rect x="1200" y="1400" width="100" height="100" fill="#85D901"/>
<path d="M1500 1400H1600V1500H1500V1400Z" fill="#8DE701"/>
<rect x="1400" y="1400" width="100" height="100" fill="#85D901"/>
<path d="M100 1400H200V1500H100V1400Z" fill="#8DE701"/>
</svg>
